<?xml version="1.0" encoding="UTF-8"?>
<!-- Generator: Adobe Illustrator 21.0.0, SVG Export Plug-In . SVG Version: 6.00 Build 0)  -->
<svg xmlns="http://www.w3.org/2000/svg" xmlns:xlink="http://www.w3.org/1999/xlink" id="DashboardObject_x5F_Image" x="0px" y="0px" width="22px" height="22px" viewBox="0 0 22 22" style="enable-background:new 0 0 22 22;" xml:space="preserve">
<path id="MountainsAndBorder" style="fill:#666666;" d="M17,5H5C4.5,5,4,5.5,4,6v10c0,0.5,0.5,1,1,1h12c0.5,0,1-0.5,1-1V6  C18,5.5,17.5,5,17,5z M17,6v5.4l-3.4-2.5L10.5,12l-2.7-1.5L5,13.3V6H17z M5,16v-1.3l2.9-3l2.8,1.5l3-3l3.4,2.4V16H5z"></path>
<circle id="Sun_1_" style="fill:#666666;" cx="8" cy="8" r="1"></circle>
</svg>
